<svg viewBox="0 0 1028 264" xmlns="http://www.w3.org/2000/svg"><g fill="#323e48"><path d="M127.6 175.4h13.9l16.4-44.9 16.3 44.9H188l32.1-88H212l-26 71.5-27-71.5h-16.8l11.6 32-14.4 39.5-26.9-71.5H87.7v2.9c9.9 1.6 9.8 1.9 12.4 9.2zM417.4 169.3c-8.8 0-8.8 0-8.8-9.8v-72h-17.1v88h52v-6.1h-26.1zM352.8 134.7c14.1-1.7 21.9-8.9 21.9-23.9 0-23.4-27.1-23.4-36.9-23.4h-28.9v88H326V93.6h10.9c11 0 19.1 3.9 19.1 18 0 16.1-11.9 19.1-20.4 19.1h-2.2l28 44.6h18.7zM483.9 87.4h-30.3v88h25.9c25.5 0 47.3-2.9 47.3-44.2.1-37-18-43.8-42.9-43.8zm-4.1 81.9c-9 0-9-3.5-9-8.6V93.6h10.7c24.6 0 27.3 14.8 27.3 37.9 0 26.4-5.2 37.8-29 37.8zM258 84.4c-31 0-39.6 18.3-39.6 47.4s8.6 46.7 39.6 46.7c29.8 0 38.8-17.6 38.8-46.7s-9.1-47.4-38.8-47.4zm-.1 87.6c-19.6 0-21.1-22.5-21.1-40.6s1.5-40.6 21.1-40.6c19.2 0 20.3 23.1 20.3 40.6.1 17.6-1.1 40.6-20.3 40.6z"/></g><g fill="#ec7625"><path d="M686.4 87.4v57.2c0 13.2-.5 27.7-22.2 27.7-18.7 0-18.7-14.5-18.7-27.7V87.4h-17.1v60.7c0 23.8 12.8 30.3 35.8 30.3 31 0 31.6-19.4 31.6-36.9V87.4zM869.2 87.4v6.2H896v81.8h17.1V93.6h26.8v-6.2zM862.3 175.4v-88h-8.2v71.1h-.3l-41.1-71.1h-17.3v88h8.3V101h.3l43.1 74.4zM778.8 87.4l-10.1 27.7h-32.4l-10.5-27.7H701v2.9c9.9 1.6 9.8 1.9 12.4 9.2l27.6 75.9h13.9l32.1-88zm-26 71.5l-14.2-37.6h27.9zM577.5 172c-19.6 0-21.1-22.5-21.1-40.6s1.5-40.6 21.1-40.6c19.2 0 20.3 23.1 20.3 40.6 0 17.6-1.1 40.6-20.3 40.6zm38.8-40.2c0-29.1-9-47.4-38.8-47.4-31 0-39.6 18.3-39.6 47.4s8.6 46.7 39.6 46.7h42.9v-2.9c-9.9-1.6-17.2-3.2-12.7-9.1 6.3-8.1 8.6-19.9 8.6-34.7"/></g><path d="M932 175.6c-4.4 0-7.7-3.3-7.7-7.7 0-4.5 3.4-7.9 7.7-7.9 4.4 0 7.7 3.4 7.7 7.9s-3.4 7.7-7.7 7.7zm0-14.1c-3.5 0-6.2 2.7-6.2 6.4 0 3.6 2.7 6.3 6.2 6.3s6.2-2.7 6.2-6.3c0-3.7-2.7-6.4-6.2-6.4zm.1 7.2h-1.6v3.8H929v-9h3.7c1.5 0 2.7 1 2.7 2.6 0 1.2-.7 2.1-1.7 2.5l2.1 4H934zm-1.5-3.9v2.5h1.9c.8 0 1.4-.5 1.4-1.3s-.5-1.2-1.4-1.2z" fill="#323e48"/></svg>
